HIERARCHY
ROOT root
{
	OFFSET 0.000000 0.000000 0.000000
	CHANNELS 6 Xposition Yposition Zposition Zrotation Yrotation Xrotation
	JOINT lhip
	{
		OFFSET 0.058581 -0.082280 -0.017664
		CHANNELS 3 Zrotation Yrotation Xrotation
		JOINT lknee
		{
			OFFSET 0.043451 -0.386469 0.008037
			CHANNELS 3 Zrotation Yrotation Xrotation
			JOINT lankle
			{
				OFFSET -0.014790 -0.426874 -0.037428
				CHANNELS 3 Zrotation Yrotation Xrotation
				JOINT ltoe
				{
					OFFSET 0.041054 -0.060286 0.122042
					CHANNELS 3 Zrotation Yrotation Xrotation
					End Site
					{
						OFFSET 0.000000 0.000000 0.000000
					}
				}
			}
		}
	}
	JOINT rhip
	{
		OFFSET -0.060310 -0.090513 -0.013543
		CHANNELS 3 Zrotation Yrotation Xrotation
		JOINT rknee
		{
			OFFSET -0.043257 -0.383688 -0.004843
			CHANNELS 3 Zrotation Yrotation Xrotation
			JOINT rankle
			{
				OFFSET 0.019056 -0.420046 -0.034562
				CHANNELS 3 Zrotation Yrotation Xrotation
				JOINT rtoe
				{
					OFFSET -0.034840 -0.062106 0.130323
					CHANNELS 3 Zrotation Yrotation Xrotation
					End Site
					{
						OFFSET 0.000000 0.000000 0.000000
					}
				}
			}
		}
	}
	JOINT lowerback
	{
		OFFSET 0.004439 0.124404 -0.038385
		CHANNELS 3 Zrotation Yrotation Xrotation
		JOINT upperback
		{
			OFFSET 0.004488 0.137956 0.026820
			CHANNELS 3 Zrotation Yrotation Xrotation
			JOINT chest
			{
				OFFSET -0.002265 0.056032 0.002855
				CHANNELS 3 Zrotation Yrotation Xrotation
				JOINT lowerneck
				{
					OFFSET -0.013390 0.211636 -0.033468
					CHANNELS 3 Zrotation Yrotation Xrotation
					JOINT upperneck
					{
						OFFSET 0.010113 0.088937 0.050410
						CHANNELS 3 Zrotation Yrotation Xrotation
						End Site
						{
							OFFSET 0.000000 0.000000 0.000000
						}
					}
				}
				JOINT lclavicle
				{
					OFFSET 0.071702 0.114000 -0.018898
					CHANNELS 3 Zrotation Yrotation Xrotation
					JOINT lshoulder
					{
						OFFSET 0.122921 0.045205 -0.019046
						CHANNELS 3 Zrotation Yrotation Xrotation
						JOINT lelbow
						{
							OFFSET 0.255332 -0.015649 -0.022946
							CHANNELS 3 Zrotation Yrotation Xrotation
							JOINT lwrist
							{
								OFFSET 0.265709 0.012698 -0.007375
								CHANNELS 3 Zrotation Yrotation Xrotation
								End Site
								{
									OFFSET 0.000000 0.000000 0.000000
								}
							}
						}
					}
				}
				JOINT rclavicle
				{
					OFFSET -0.082954 0.112472 -0.023707
					CHANNELS 3 Zrotation Yrotation Xrotation
					JOINT rshoulder
					{
						OFFSET -0.113228 0.046853 -0.008472
						CHANNELS 3 Zrotation Yrotation Xrotation
						JOINT relbow
						{
							OFFSET -0.260127 -0.014369 -0.031269
							CHANNELS 3 Zrotation Yrotation Xrotation
							JOINT rwrist
							{
								OFFSET -0.269108 0.006794 -0.006027
								CHANNELS 3 Zrotation Yrotation Xrotation
								End Site
								{
									OFFSET 0.000000 0.000000 0.000000
								}
							}
						}
					}
				}
			}
		}
	}
}
MOTION
Frames: 8
Frame Time: 0.033333
-0.163193 -1.389289 0.987645 174.046523 -0.956787 89.293749 1.761738 5.476282 8.820953 -1.852821 -4.923481 -4.995731 2.442253 11.856478 -12.437318 0.000000 -0.000000 0.000000 -7.051644 -9.466921 0.918346 2.583242 -14.042976 3.965065 3.349432 -8.443446 -7.592388 0.000000 -0.000000 0.000000 2.888862 2.005701 -3.264921 -0.958724 0.677028 11.668130 -1.170069 1.379424 -3.430908 -1.180203 28.259502 6.816495 -0.499744 28.164311 11.189082 -31.447030 0.361834 0.343388 -54.377646 -4.953765 14.217256 4.992409 -23.991901 5.526126 -5.413685 -11.521539 0.183894 31.154066 4.060410 6.619780 52.317199 7.853441 9.248293 -14.429004 16.030129 -20.206803 8.472828 11.997642 -14.146242 
-0.162981 -1.389812 0.987538 173.609059 -0.957031 89.397319 1.727419 5.549537 8.687221 -1.869970 -4.649674 -4.952079 2.497654 11.848956 -12.365367 0.000000 -0.000000 0.000000 -7.022590 -9.221652 0.656341 2.575761 -13.673730 4.069005 3.740358 -8.552347 -7.844868 0.000000 -0.000000 0.000000 2.902037 2.086169 -2.998999 -1.059852 0.687643 11.147881 -1.132459 1.427004 -3.031804 -1.124466 28.252178 6.445376 -0.248207 28.288720 12.001866 -31.235032 0.242548 0.234194 -54.722419 -5.068698 14.182216 5.149615 -23.443887 5.033063 -4.935978 -11.653978 0.045472 31.138397 4.109320 6.715791 52.454350 8.042723 9.402370 -14.433564 16.187835 -20.448170 8.314691 12.117383 -14.176479 
-0.162858 -1.390047 0.987383 173.201834 -0.915833 89.565606 1.720645 5.575942 8.521482 -1.929406 -4.320295 -4.897225 2.735888 12.004973 -12.346993 0.000000 -0.000000 0.000000 -6.967604 -9.091149 0.340953 2.610361 -13.464955 4.179600 3.895654 -8.515417 -8.001411 0.000000 -0.000000 0.000000 2.935596 2.126786 -2.870553 -1.050215 0.631640 10.725351 -1.161990 1.451776 -2.773924 -1.062675 28.365386 6.416644 -0.203071 28.318708 12.204662 -30.952543 0.267145 0.064065 -55.185276 -5.020110 14.182702 5.458292 -23.068298 4.275707 -4.898125 -11.603468 0.213641 30.966799 4.148451 6.764648 52.698567 7.983052 9.644566 -14.424874 16.601626 -20.540756 8.342412 12.136132 -14.115939 
-0.162707 -1.391574 0.987762 173.171022 -0.813864 89.778540 1.796617 5.478559 7.951007 -2.003010 -4.294514 -4.425258 2.708794 12.177181 -12.434856 0.000000 -0.000000 0.000000 -6.747492 -8.950342 -0.092998 2.540283 -13.485586 4.269953 4.041385 -8.705636 -7.918345 0.000000 -0.000000 0.000000 2.881897 1.946193 -2.659471 -1.033401 0.442272 10.489473 -1.091386 1.410230 -2.731159 -1.019264 28.394399 6.292697 0.008700 28.419490 12.606707 -30.667126 0.358501 -0.023630 -55.359453 -5.096812 14.215640 5.575101 -22.941685 4.081382 -4.885181 -11.537451 0.232767 30.675919 4.160108 6.648047 53.252870 8.051963 9.849256 -14.515876 16.853681 -20.535018 8.126409 12.138720 -14.364922 
-0.162641 -1.391911 0.987903 173.158585 -0.793902 89.824183 1.808146 5.448889 7.871719 -1.997168 -4.280422 -4.409654 2.706785 12.179244 -12.319359 0.000000 -0.000000 0.000000 -6.684671 -8.916413 -0.197240 2.517212 -13.546768 4.278452 4.046675 -8.769151 -7.859570 0.000000 -0.000000 0.000000 2.843728 1.927467 -2.655492 -1.019607 0.425676 10.438204 -1.060539 1.357397 -2.657799 -0.945864 28.415981 6.396707 0.029209 28.434998 12.596593 -30.596712 0.375653 -0.054925 -55.379254 -5.213665 14.228749 5.526966 -22.796601 4.144204 -5.081850 -11.662940 0.202166 30.577324 4.134381 6.558463 53.395349 8.069946 9.925527 -14.405170 16.894638 -20.537631 8.055230 12.164317 -14.466897 
-0.162455 -1.392142 0.988094 172.941232 -0.737838 89.782718 1.877602 5.527847 7.997498 -2.009472 -4.267604 -4.485503 2.746952 12.242843 -12.328340 0.000000 -0.000000 0.000000 -6.590881 -8.846178 -0.214144 2.442637 -13.461313 4.269673 3.976629 -8.645407 -7.602040 0.000000 -0.000000 0.000000 2.788905 1.974449 -2.424059 -0.964766 0.483017 10.269863 -0.987269 1.304296 -2.519774 -0.924725 28.390739 6.408115 0.029130 28.461349 12.707848 -30.628017 0.246910 -0.015187 -55.294621 -5.257951 14.243517 5.599310 -22.869521 4.040406 -5.012516 -11.686893 0.026923 30.619246 4.103312 6.521326 53.328320 7.968495 10.004347 -14.322512 17.279418 -20.549084 8.012517 12.259589 -14.745673 
-0.162496 -1.392273 0.988263 172.708610 -0.677772 89.799479 1.899170 5.584566 8.006902 -2.000154 -4.176656 -4.500502 2.794963 12.332041 -12.328084 0.000000 -0.000000 0.000000 -6.532618 -8.736263 -0.312603 2.451846 -13.479338 4.289024 3.894218 -8.585673 -7.445996 0.000000 -0.000000 0.000000 2.816296 1.950805 -2.417516 -0.945828 0.475406 10.375512 -0.979794 1.336929 -2.651228 -0.870598 28.457606 6.720273 0.009254 28.436730 12.614175 -30.507586 0.262806 -0.010986 -55.351296 -5.306905 14.236544 5.556495 -22.827846 4.010443 -5.281936 -11.672226 -0.020122 30.489027 4.112261 6.557945 53.359104 7.889911 10.063610 -14.072355 17.489308 -20.471358 8.008903 12.306722 -14.771293 
-0.162636 -1.392071 0.988368 172.458092 -0.656194 89.861917 1.872839 5.591802 8.027845 -1.995061 -4.017378 -4.584525 2.800445 12.414769 -12.306257 0.000000 -0.000000 0.000000 -6.534129 -8.636372 -0.438235 2.429768 -13.522076 4.339968 3.844572 -8.432907 -7.359781 0.000000 -0.000000 0.000000 2.915658 1.969765 -2.623876 -0.975559 0.519485 10.593373 -1.067704 1.328767 -2.706261 -0.855500 28.621716 6.807783 -0.029731 28.371735 12.671394 -30.483411 0.290444 -0.037926 -55.353917 -5.398483 14.161946 5.720812 -22.786510 3.789590 -5.275093 -11.905939 0.006649 30.545522 4.145745 6.716502 53.401392 7.918465 10.067843 -14.180474 17.529711 -20.559121 7.832610 12.300326 -14.673019 
